<svg width="14" height="14" viewBox="0 0 14 14" fill="none" xmlns="http://www.w3.org/2000/svg">
<path d="M5.73924 1.04978C5.84083 0.798689 6.01509 0.583658 6.23968 0.432249C6.46428 0.28084 6.72897 0.199951 6.99983 0.199951C7.27069 0.199951 7.53538 0.28084 7.75998 0.432249C7.98457 0.583658 8.15883 0.798689 8.26042 1.04978C9.26586 1.32629 10.1527 1.92523 10.7848 2.75459C11.4169 3.58395 11.7593 4.59788 11.7593 5.64066V8.83428L13.005 10.7027C13.0733 10.8051 13.1125 10.9241 13.1185 11.0471C13.1245 11.17 13.0969 11.2923 13.0389 11.4009C12.9808 11.5094 12.8944 11.6001 12.7887 11.6634C12.6831 11.7266 12.5624 11.76 12.4393 11.76H9.35578C9.27392 12.3265 8.9907 12.8445 8.55802 13.2191C8.12534 13.5937 7.57217 13.8 6.99983 13.8C6.42749 13.8 5.87432 13.5937 5.44164 13.2191C5.00896 12.8445 4.72574 12.3265 4.64388 11.76H1.5604C1.43731 11.76 1.31651 11.7266 1.21091 11.6634C1.10531 11.6001 1.01886 11.5094 0.96079 11.4009C0.902718 11.2923 0.8752 11.17 0.881172 11.0471C0.887144 10.9241 0.926383 10.8051 0.994701 10.7027L2.24033 8.83428V5.64066C2.24033 3.44857 3.72257 1.60188 5.73924 1.04978ZM5.7568 11.76C5.88667 12.1826 6.07408 12.4409 6.27625 12.584C6.4485 12.7059 6.78916 12.7713 7.00017 12.7713C7.21118 12.7713 7.57638 12.7313 7.83458 12.5486C8.16226 12.3167 8.24839 11.959 8.31861 11.76H5.7568ZM6.99983 1.85273C6.09819 1.85273 4.93618 2.28174 4.29862 2.91929C3.66106 3.55685 3.30289 4.73901 3.30289 5.64066V9.0403C3.30292 9.17461 3.26317 9.30591 3.18866 9.41766L2.24033 10.7027H11.7593L10.8041 9.41766C10.7298 9.30584 10.6903 9.17454 10.6906 9.0403V5.64066C10.6906 4.73901 10.3324 3.55685 9.69484 2.91929C9.05728 2.28174 7.90147 1.85273 6.99983 1.85273Z" fill="#595959"/>
</svg>
