<svg width="14" height="12" viewBox="0 0 14 12" fill="none" xmlns="http://www.w3.org/2000/svg">
<path d="M6.54329 1.85453L7.0001 2.39097L7.45691 1.85453C8.04435 1.16469 8.94817 0.72793 9.8801 0.72793C11.5199 0.72793 12.8001 2.0081 12.8001 3.64793C12.8001 4.66044 12.3502 5.62601 11.4357 6.74406C10.5143 7.87052 9.18513 9.07731 7.52505 10.5827L7.52419 10.5834L6.99857 11.0619L6.47562 10.5895C6.47539 10.5893 6.47517 10.5891 6.47494 10.5889C4.81505 9.08047 3.48605 7.87227 2.56466 6.74501C1.65004 5.62605 1.2001 4.66045 1.2001 3.64793C1.2001 2.0081 2.48027 0.72793 4.1201 0.72793C5.05203 0.72793 5.95584 1.16469 6.54329 1.85453Z" stroke="#595959" stroke-width="1.2"/>
</svg>
