<svg width="3" height="11" viewBox="0 0 3 11" fill="none" xmlns="http://www.w3.org/2000/svg">
<path d="M0 9.25C0 9.9375 0.5625 10.5 1.25 10.5C1.9375 10.5 2.5 9.9375 2.5 9.25C2.5 8.5625 1.9375 8 1.25 8C0.5625 8 0 8.5625 0 9.25ZM0 1.75C0 2.4375 0.5625 3 1.25 3C1.9375 3 2.5 2.4375 2.5 1.75C2.5 1.0625 1.9375 0.5 1.25 0.5C0.5625 0.5 0 1.0625 0 1.75ZM0 5.5C0 6.1875 0.5625 6.75 1.25 6.75C1.9375 6.75 2.5 6.1875 2.5 5.5C2.5 4.8125 1.9375 4.25 1.25 4.25C0.5625 4.25 0 4.8125 0 5.5Z" fill="#161616"/>
</svg>
